<svg xmlns="http://www.w3.org/2000/svg" version="1.1" xmlns:xlink="http://www.w3.org/1999/xlink" xmlns:svgjs="http://svgjs.com/svgjs" width="1440" height="560" preserveAspectRatio="none" viewBox="0 0 1440 560"><g mask="url(&quot;#SvgjsMask1023&quot;)" fill="none"><rect width="1440" height="560" x="0" y="0" fill="url(#SvgjsLinearGradient1024)"></rect><path d="M 0,200 C 57.6,168 172.8,50.2 288,40 C 403.2,29.8 460.8,144.2 576,149 C 691.2,153.8 748.8,62.4 864,64 C 979.2,65.6 1036.8,146.6 1152,157 C 1267.2,167.4 1382.4,124.2 1440,116L1440 560L0 560z" fill="#184a7e"></path><path d="M 0,442 C 96,420.4 288,324.6 480,334 C 672,343.4 768,484.6 960,489 C 1152,493.4 1344,382.6 1440,356L1440 560L0 560z" fill="#2264ab"></path></g><defs><mask id="SvgjsMask1023"><rect width="1440" height="560" fill="#ffffff"></rect></mask><linearGradient x1="50%" y1="100%" x2="50%" y2="0%" gradientUnits="userSpaceOnUse" id="SvgjsLinearGradient1024"><stop stop-color="#0e2a47" offset="0"></stop><stop stop-color="rgba(11, 134, 219, 1)" offset="1"></stop></linearGradient></defs></svg>